<svg xmlns="http://www.w3.org/2000/svg" xmlns:xlink="http://www.w3.org/1999/xlink" width="1191.163" height="712.2" viewBox="0 0 1191.163 712.2">
  <defs>
    <linearGradient id="linear-gradient" x1="0.5" x2="0.5" y2="1" gradientUnits="objectBoundingBox">
      <stop offset="0" stop-color="gray" stop-opacity="0.251"/>
      <stop offset="0.54" stop-color="gray" stop-opacity="0.122"/>
      <stop offset="1" stop-color="gray" stop-opacity="0.102"/>
    </linearGradient>
    <linearGradient id="linear-gradient-2" x1="940.67" y1="825.72" x2="940.67" y2="263.72" xlink:href="#linear-gradient"/>
    <linearGradient id="linear-gradient-3" x1="0.5" x2="0.5" y2="1" gradientUnits="objectBoundingBox">
      <stop offset="0" stop-color="#ffc014" stop-opacity="0.251"/>
      <stop offset="1" stop-color="#fbba14" stop-opacity="0.051"/>
    </linearGradient>
  </defs>
  <g id="Grupo_8" data-name="Grupo 8" transform="translate(-123.697 -225.957)">
    <g id="Grupo_6" data-name="Grupo 6" transform="translate(54 11)">
      <g id="undraw_medicine_b1ol" transform="translate(119.766 8.55)">
        <ellipse id="Oval" cx="131.982" cy="17.08" rx="131.982" ry="17.08" transform="translate(877.13 865.29)" fill="#6c63ff" opacity="0.1"/>
        <path id="Shape" d="M43.476,54.345H0V40.687H19.49V0q2.534.933,5.048,1.919V40.687H43.476Z" transform="translate(136.054 206.407)" fill="#6c63ff" opacity="0.1"/>
        <rect id="Rectangle-path" width="31.055" height="31.055" transform="translate(877.13 428.974)" fill="#6c63ff" opacity="0.1"/>
        <rect id="Rectangle-path-2" data-name="Rectangle-path" width="31.055" height="31.055" transform="translate(206.353 357.549)" fill="#6c63ff" opacity="0.1"/>
        <rect id="Rectangle-path-3" data-name="Rectangle-path" width="31.055" height="31.055" transform="translate(206.353 428.974)" fill="#6c63ff" opacity="0.1"/>
        <rect id="Rectangle-path-4" data-name="Rectangle-path" width="31.055" height="31.055" transform="translate(206.353 500.4)" fill="#6c63ff" opacity="0.1"/>
        <rect id="Rectangle-path-5" data-name="Rectangle-path" width="31.055" height="31.055" transform="translate(206.353 571.825)" fill="#6c63ff" opacity="0.1"/>
        <rect id="Rectangle-path-6" data-name="Rectangle-path" width="31.055" height="31.055" transform="translate(206.353 646.356)" fill="#6c63ff" opacity="0.1"/>
        <rect id="Rectangle-path-7" data-name="Rectangle-path" width="31.055" height="31.055" transform="translate(995.138 428.974)" fill="#6c63ff" opacity="0.1"/>
        <rect id="Rectangle-path-8" data-name="Rectangle-path" width="31.055" height="31.055" transform="translate(877.13 506.611)" fill="#6c63ff" opacity="0.1"/>
        <rect id="Rectangle-path-9" data-name="Rectangle-path" width="31.055" height="31.055" transform="translate(995.138 506.611)" fill="#6c63ff" opacity="0.1"/>
        <rect id="Rectangle-path-10" data-name="Rectangle-path" width="31.055" height="31.055" transform="translate(877.13 582.694)" fill="#6c63ff" opacity="0.1"/>
        <rect id="Rectangle-path-11" data-name="Rectangle-path" width="31.055" height="31.055" transform="translate(995.138 582.694)" fill="#6c63ff" opacity="0.1"/>
        <rect id="Rectangle-path-12" data-name="Rectangle-path" width="31.055" height="31.055" transform="translate(877.13 657.225)" fill="#6c63ff" opacity="0.1"/>
        <rect id="Rectangle-path-13" data-name="Rectangle-path" width="31.055" height="31.055" transform="translate(995.138 657.225)" fill="#6c63ff" opacity="0.1"/>
        <rect id="Rectangle-path-14" data-name="Rectangle-path" width="31.055" height="31.055" transform="translate(877.13 736.414)" fill="#6c63ff" opacity="0.1"/>
        <path id="Shape-2" data-name="Shape" d="M0,20.185V0H31.055V17.313L0,20.185Z" transform="translate(877.13 812.498)" fill="#6c63ff" opacity="0.1"/>
        <path id="Shape-3" data-name="Shape" d="M105.586,18.632H0V0H105.586V18.632Zm-9.2-17.486V17.464h8.678V1.146Zm-10.5,0V17.464h8.68V1.146Zm-10.5,0V17.464h8.678V1.146Zm-10.5,0V17.464h8.68V1.146Zm-10.512,0V17.464h8.68V1.146Zm-10.512,0V17.464h8.678V1.146Zm-10.491,0V17.464h8.668l.011-16.318Zm-10.521,0V17.464h8.678V1.146Zm-10.491,0V17.464h8.678V1.146Zm-10.447,0V17.464h8.614l.066-16.318Z" transform="translate(51.08 371.523)" fill="#6c63ff" opacity="0.1"/>
        <path id="Shape-4" data-name="Shape" d="M105.586,18.632H0V0H105.586V18.632Zm-9.2-17.453V17.453h8.678V1.179Zm-10.5,0V17.453h8.68V1.179Zm-10.5,0V17.453h8.678V1.179Zm-10.5,0V17.453h8.68V1.179Zm-10.512,0V17.453h8.68V1.179Zm-10.512,0V17.453h8.678V1.179Zm-10.491,0V17.453h8.668l.011-16.273Zm-10.521,0V17.453h8.678V1.179Zm-10.491,0V17.453h8.678V1.179Zm-10.447,0V17.453h8.614l.066-16.273Z" transform="translate(51.08 421.211)" fill="#6c63ff" opacity="0.1"/>
        <path id="Shape-5" data-name="Shape" d="M105.586,18.632H0V0H105.586V18.632Zm-9.2-17.467V17.421h8.678V1.165Zm-10.5,0V17.421h8.68V1.165Zm-10.5,0V17.421h8.678V1.165Zm-10.5,0V17.421h8.68V1.165Zm-10.512,0V17.421h8.68V1.165Zm-10.512,0V17.421h8.678V1.165Zm-10.491,0V17.421h8.668l.011-16.255Zm-10.521,0V17.421h8.678V1.165Zm-10.491,0V17.421h8.678V1.165Zm-10.447,0V17.421h8.614l.066-16.255Z" transform="translate(51.08 474.003)" fill="#6c63ff" opacity="0.1"/>
        <path id="Shape-6" data-name="Shape" d="M105.586,18.632H0V0H105.586V18.632Zm-9.2-17.474V17.475h8.678V1.158Zm-10.5,0V17.475h8.68V1.158Zm-10.5,0V17.475h8.678V1.158Zm-10.5,0V17.475h8.68V1.158Zm-10.512,0V17.475h8.68V1.158Zm-10.512,0V17.475h8.678V1.158Zm-10.491,0V17.475h8.668l.011-16.317Zm-10.521,0V17.475h8.678V1.158Zm-10.491,0V17.475h8.678V1.158Zm-10.447,0V17.475h8.614l.066-16.317Z" transform="translate(51.08 526.796)" fill="#6c63ff" opacity="0.1"/>
        <path id="Shape-7" data-name="Shape" d="M105.586,18.632H5.883c-.09-.226-.182-.48-.271-.726-.052-.142-.1-.284-.154-.421h4.663V1.17H1.406V5.243C.838,3.282.379,1.567,0,0H105.586V18.632ZM96.38,1.17V17.485H105.1V1.17Zm-10.547,0V17.485h8.716V1.17Zm-10.547,0V17.485H84V1.17Zm-10.547,0V17.485h8.716V1.17Zm-10.558,0V17.485H62.9V1.17Zm-10.558,0V17.485H52.34V1.17Zm-10.569,0V17.485h8.738L41.773,1.17Zm-10.535,0V17.485h8.716V1.17Zm-10.535,0V17.485H20.7V1.17Z" transform="translate(52.633 578.036)" fill="#6c63ff" opacity="0.1"/>
        <path id="Shape-8" data-name="Shape" d="M80.742,18.632H14.673c-.3-.276-.569-.574-.827-.861-.086-.1-.172-.192-.259-.286h3.519V1.1H8.417V11.286c-.527-.616-1.05-1.277-1.556-1.916l-.3-.38V1.149H.815C.657.943.5.721.356.506.24.337.12.163,0,0H80.742V18.632ZM71.5,1.171h0V17.485h8.688V1.171Zm-10.514,0h0V17.485h8.689V1.171Zm-10.513,0h0V17.485h8.689V1.171Zm-10.513,0h0V17.485h8.688V1.171Zm-10.526,0h0V17.485h8.689V1.171Zm-10.524,0h0V17.485H27.6V1.171Z" transform="translate(75.924 629.276)" fill="#6c63ff" opacity="0.1"/>
        <path id="Shape-9" data-name="Shape" d="M0,0C1.011.574,2.045,1.1,3.089,1.677V1.126h8.89V6.091l1.889.872V1.126h8.89V10.67a2.79,2.79,0,0,0,.533.2V0Z" transform="translate(134.927 680.516)" fill="#6c63ff" opacity="0.1"/>
        <g id="Grupo_5" data-name="Grupo 5" transform="translate(810.622 218.909)">
          <ellipse id="Oval-2" data-name="Oval" cx="105.585" cy="17.08" rx="105.585" ry="17.08" transform="translate(1.547 644.382)" fill="#6c63ff" opacity="0.1"/>
          <path id="Shape-10" data-name="Shape" d="M71.6,0c-6.054,0-9.176,3.968-10.728,7.3a21.633,21.633,0,0,0-1.846,6.613l1.606,17.326.1,1.033c-.088.148-8.879,15.018-11.128,20.457-.816,1.943-.023,3.832,2.426,5.773a40.5,40.5,0,0,0,7.39,4.184c1.154.55,2.148,1.024,2.9,1.452,1.112.636,2.252,2.623,1.365,8.477a51.666,51.666,0,0,1-1.562,6.8c-.033.115-3.356,11.612-7.182,21.926-.885,2.386-1.21,7.159-.964,14.185.2,5.621.756,12.689,1.662,21.007,1.554,14.251,3.588,27.216,3.609,27.345,0,.092.428,9.263,1.442,12.486a20.761,20.761,0,0,1,.3,7.08l-.3.152.1,1.762a3.153,3.153,0,0,0-.1.653l.405,7.439c0,.211.253,21.361.15,42.943-.172,36.157-1.181,45.931-2,47.764-1.542,3.462-2.781,13.969-3.427,22.647-.656,8.816-.925,18.912-.049,21.6a26.53,26.53,0,0,1,.186,5.742l-2.448-1.719a7,7,0,0,0-1.607.6l-.852-.6c-2.713.6-6.556,3.779-11.423,9.461a202,202,0,0,0-13.537,18.268c-8.611,12.822-15.968,25.643-16.041,25.771-.088.2-8.8,19.942-8.406,22.122S.02,424.6,0,424.74l3.695,32.575,20.024,41.057a149.113,149.113,0,0,1,6.975,17.706,25.234,25.234,0,0,0,4.54,7.8,56.8,56.8,0,0,0,6.6,6.761,81.943,81.943,0,0,0,8.534,6.564c.04.025,4.038,2.537,8.84,5.03,8.009,4.157,12,5.03,13.939,5.03.131,0,.259,0,.382-.011s.267-.012.4-.012c1.854,0,5.063.8,9.823,4.635A46.823,46.823,0,0,1,88.7,556.5c2.4,6,5.156,9.414,8.2,10.158v.1l.1-.077a5.315,5.315,0,0,0,1.15.126c.082,0,.167,0,.251-.006l.129,0a4.591,4.591,0,0,0,3.5-1.612,62.015,62.015,0,0,1,.12,9.69c-.008.154-.021.313-.033.467-.021.264-.043.529-.043.785a37.162,37.162,0,0,0-17.031,30.4v1.219a33.855,33.855,0,0,1-3.8,3.321,27.552,27.552,0,0,0-4.525,4.151,14.3,14.3,0,0,0-1,1.458c-.053.084-.1.167-.143.255-.031.059-.063.119-.1.18a10.027,10.027,0,0,0-.558,1.087c-.073.154-.138.315-.2.47l-.039.1c-.165.414-.286.76-.383,1.087-.02.058-.04.117-.061.175-.048.137-.1.278-.136.423-.127.462-.259,1.068-.328,1.437-.047.249-.089.586-.12.832-.013.1-.024.19-.033.255-.013.086-.019.154-.025.225a3.884,3.884,0,0,1-.063.448,5.806,5.806,0,0,0-.066,1.089v1.772a22.662,22.662,0,0,0,.394,3.329c1.014,5.036,3.486,9.7,5.877,14.208l.015.028c1.517,2.8,3.01,5.6,4.437,8.32,1.6,3.008,3.59,6.752,6.9,9.005,3.6,2.411,8.089,2.636,12.435,2.853a43.934,43.934,0,0,1,7.8.856,40.837,40.837,0,0,1,5.134,1.69c1.295.491,2.632,1,3.981,1.388a26.7,26.7,0,0,0,18.527-1.414,31.557,31.557,0,0,1,3.425-2.326c1.468-.942,2.852-1.829,3.133-2.09a41.967,41.967,0,0,0,4.679-5.622c2.481-3.2,5.737-3.376,9.507-3.576.736-.039,1.5-.079,2.265-.144,4.147-.352,8.759-1.012,11.008-4.4,1.671-2.517,1.362-5.737.809-7.995-.294-1.2-.7-2.39-1.089-3.542a35.065,35.065,0,0,1-1.273-4.374c-.087-.466-.166-.992-.24-1.61l-.066-.914a49.146,49.146,0,0,1,.217-6.889c.1-1.331.212-2.7.252-4.051.143-3.909-.471-9.231-4.208-12.388-.434-.366-.911-.7-1.373-1.031a8.85,8.85,0,0,1-2.671-2.5,8.279,8.279,0,0,1-.835-2.4,10.743,10.743,0,0,0-.6-1.955,3.549,3.549,0,0,0-2.131-1.914c-.045-.154-.088-.31-.131-.467l0-.011c-.071-.259-.145-.527-.227-.784a37.674,37.674,0,0,0-16.626-20.469,8.524,8.524,0,0,0,.055-1.175,104.379,104.379,0,0,1,1.268-11.17h.009c.549-.009,5.4-.129,6.549-1.632a10.812,10.812,0,0,1,1.782-1.337c7-4.645,31.582-18.836,31.83-18.979a55.053,55.053,0,0,0,7.271-3.634c3.5-2.1,8.038-5.435,9.738-9.418l.833-1.956.033-.077c2.788-6.55,4.8-11.282,6.3-13.289,1.632-2.183,2.451-12.363,2.46-12.465.047-.189,4.773-18.937,8.417-22.122,3.673-3.209,6.35-23.345,6.35-23.525.031-.116,3.083-11.742,3.083-17.9,0-3.225,1.171-4.913,2.153-5.762a4.621,4.621,0,0,1,2.153-1.08,15.535,15.535,0,0,0,2.042-3.216c.791-1.7,1.468-4.156.2-6.235-2.428-3.973-3.476-13.779-3.487-13.878.008-.195.2-4.832-.046-9.783a49.584,49.584,0,0,0-.811-7.276c-.488-2.367-1.163-3.869-2.006-4.464-3.647-2.576-4.507-8.779-4.515-8.842-.068-.119-6.764-11.884-6.558-14.683s-9.336-21.735-9.433-21.926c-.011.006-.686.388-1.934,1.089l-.525-1.088c0,.02.092.5.174,1.25-.319.195-.67.405-1.01.609-1.095.656-2.335,1.4-3.712,2.328-1.938-1.412.209-4.764.231-4.8a10.775,10.775,0,0,1-1.367-.967c.075-.137.14-.235.143-.239a11.457,11.457,0,0,1-1.344-.914c-1.027-1.266-1.119-2.419-.274-3.427,2.226-2.591.844-14.464.83-14.584l-6.153-10v-.008c.04-.683.392-6.915.392-15.13.023-14.129-.879-32.767-5.312-41.33l.612-71.4-.02-.008c-.615-.217-3.927-1.358-8.724-2.569.075-.537.145-1.084.212-1.613l0-.015,0-.019q.045-.349.089-.692a45.171,45.171,0,0,0,.47-5.753c-.194-2.184,0-8.969,0-9.037l1.016-20.512a22.721,22.721,0,0,1-1.016-6.635c.207-2.607,4.049-39.661,4.088-40.034.068-.223,6.749-22.317,4.515-23.927s3.223-21.552,3.278-21.753c-.008,0-.338.029-.919.029-.337,0-.686-.01-1.037-.029h1.936a11.422,11.422,0,0,1,2.1-6.244,32.062,32.062,0,0,1,4.8-5.7,58.221,58.221,0,0,1,7.047-5.762c6.561-2.405,11.368-5.187,14.285-8.266,2.448-2.584,3.034-4.821,3.095-6.242a4.318,4.318,0,0,0-.154-1.567l-.038-.007c-.774-.13-3.6-.593-7.492-1.08a196.149,196.149,0,0,0-23.013-1.683c-7.916,0-13.1.932-15.4,2.771a21.263,21.263,0,0,1-13.442,4.8,21.35,21.35,0,0,1-2.178-.112l-.361-.064s-.3-.008-.8-.008c-3.321,0-14.318.319-16.417,4.422-.872,1.707-.917,4.975-.131,9.712A91.746,91.746,0,0,0,147.585,43.9c.993,1.054,1,8.356,1,8.43a39.982,39.982,0,0,0-6.456,11.987,18.181,18.181,0,0,0-.677,8.541,12.627,12.627,0,0,0,4.882,8.034l-.015.066c-.7,3.307-6.826,32.628-7.976,43.775-.8,7.7-1.8,27.772-2.492,43.254-.066.843-.1,1.634-.1,2.349-2.58-.152-5.158-.152-7.651-.152a143.752,143.752,0,0,0-20.593,1.555c-.241-.88-.422-1.62-.569-2.328a63.14,63.14,0,0,1-.753-15.911c.4-7.514,0-58.423,0-58.936-.364-.565-8.937-13.839-13.74-18.49a3.011,3.011,0,0,1-.971-2.634c.166-1.363,1.3-3.721,5.727-7.213A51.252,51.252,0,0,1,102.5,62.6a19.886,19.886,0,0,0-.813-9.411A38.4,38.4,0,0,0,97.7,44.649a55.929,55.929,0,0,0-6.484-8.6c0-.006.128-.323.349-.837,2.231-5.589,7.4-18.91,7.236-21.883a5.98,5.98,0,0,1,1.825-4.35A10.886,10.886,0,0,1,102.7,7.275l-.038-.016C101.125,6.714,87.295,1.889,76.142.4,74.905.237,73.632.106,72.557.032,72.234.011,71.912,0,71.6,0Zm-23,438.184-1.7-1.544c.006-.01.829-1.329,1.881-3.013Z" transform="translate(236.009 669.225) rotate(180)" fill="url(#linear-gradient)"/>
          <path id="Shape-11" data-name="Shape" d="M0,28.767,2.161,38.818S19.47,29.171,22.592,16.913,17.369,0,17.369,0L1.241,7.462Z" transform="translate(29.497 291.913)" fill="#fff"/>
          <path id="Shape-12" data-name="Shape" d="M0,28.767,2.161,38.818S19.47,29.171,22.592,16.913,17.369,0,17.369,0L1.241,7.462Z" transform="translate(29.497 291.913)" opacity="0.1"/>
          <path id="Shape-13" data-name="Shape" d="M0,39.392S17.773,45.75,29.991,46.55c6.487.422,9.9-3.449,11.652-7.18a21.285,21.285,0,0,0,1.833-6.542L41.888,15.69l-.844-9.126L15.085,0,11.408,10.943l-.344.833C9.586,15.43,3.666,30.3,3.843,33.4a5.826,5.826,0,0,1-1.822,4.271A10.484,10.484,0,0,1,0,39.392Z" transform="translate(133.529 622.643)" fill="#fff"/>
          <path id="Shape-14" data-name="Shape" d="M.015,31.469A4.237,4.237,0,0,0,.166,33s36.982,6.108,44.547,0a20.18,20.18,0,0,1,15.562-4.514s14.309.385,16.7-4.279c.994-1.957.735-5.755.119-9.5A89.706,89.706,0,0,0,74.584,4.321l-.573-.449-3.4-2.706L30.75,0h-.3c.195,8.065-13.53,17.317-13.53,17.317C2.338,22.666.188,28.709.015,31.469Z" transform="translate(13.969 621.091)" fill="#fff"/>
          <path id="Shape-15" data-name="Shape" d="M.012,17.346a4.62,4.62,0,0,0,.162,1.583s36.975,6.321,44.541,0a19.714,19.714,0,0,1,15.553-4.671s14.321.4,16.7-4.428c.994-2.037.746-5.955.13-9.83C71.584.565,62.884,1.97,59.468,5.324c-5.166,5.1-13.921,10.2-19.293,10.594C35.971,16.195,10.82,17.014.012,17.346Z" transform="translate(13.969 636.618)" opacity="0.1"/>
          <path id="Shape-16" data-name="Shape" d="M0,1.752S17.234,8.441,29.083,9.283c6.29.444,9.6-3.629,11.288-7.565-4.384,1.559-10.47,3.2-13.669,1.7C22.911,1.638,9.468.489,1.928,0A10.8,10.8,0,0,1,0,1.752Z" transform="translate(135.082 659.909)" opacity="0.1"/>
          <path id="Shape-17" data-name="Shape" d="M16.166,65.493c14.322-5.6,32.744-24.1,28.144-32.746A19.436,19.436,0,0,1,42.52,25.8a63.768,63.768,0,0,1-.13-9.824A135.312,135.312,0,0,1,44.31,0S-.4,1.015,2.2,7.641c.759,1.943.879,5.316.673,9.093s-.749,8.045-1.313,11.658C.781,33.347,0,37.123,0,37.123s2.734,3.853,4.34,4.061S-4.383,73.472,16.166,65.493Z" transform="translate(91.606 80.742)" fill="#b77782"/>
          <path id="Shape-18" data-name="Shape" d="M0,11.348l.33.354c13.1-15.527,28.938,3.825,28.938,3.825l.234-.406-.808-8.8L3.849,0,.33,10.546Z" transform="translate(145.951 622.643)" opacity="0.1"/>
          <path id="Shape-19" data-name="Shape" d="M0,1.168s9.583-.2,14.694,4.339,29.814.986,28.749,0a3.54,3.54,0,0,1-.554-1.629L39.535,1.168.266,0C.117.718,0,1.168,0,1.168Z" transform="translate(46.576 621.091)" opacity="0.1"/>
          <path id="Shape-20" data-name="Shape" d="M.114,21.387a29.657,29.657,0,0,1,1.681,5.555,62.279,62.279,0,0,1,.763,15.767c-.409,7.58,0,58.377,0,58.377S11.3,114.632,16.18,119.408s-9.952,13.352-9.952,13.352c-2.211,12.345,11.19,26.292,11.19,26.292,13.623-16.135,30.1,3.985,30.1,3.985s8.956-15.16,11.19-20.574S49.96,133.3,46.1,131.1s.188-15.16.188-15.16,3.262-11.359,7.132-21.722-4.268-61.951-4.268-61.951-.42-9.161-1.426-12.355a20.242,20.242,0,0,1-.3-7.017c.066-.79.144-1.451.2-1.9s.1-.65.1-.65l-.155-.26L42.043,0S-2.54,15.03.114,21.387Z" transform="translate(127.318 473.582)" fill="#0f0cd3"/>
          <path id="Shape-21" data-name="Shape" d="M0,136.265s9.742-.206,14.938,4.33,30.309,1,29.226,0-1-8.368-1-8.368c14.732-20.113,2.165-28.275,2.165-28.275s6.581-31.663,7.772-43.408c.833-8.205,1.862-30.256,2.414-42.845.238-5.412.379-9.136.379-9.136L43.861,6.138l-1.548-.314L13.282,0s-.8,5.412-1.342,9.84a45.988,45.988,0,0,0-.455,5.7c.195,2.165,0,8.941,0,8.941L10.5,44.8a23.079,23.079,0,0,1,.985,6.571c-.195,2.587-3.973,39.63-3.973,39.63s-6.571,22.1-4.33,23.7S0,136.265,0,136.265Z" transform="translate(45.024 484.451)" fill="#0f0cd3"/>
          <path id="Shape-22" data-name="Shape" d="M.113,8.055c.782,2.048.905,5.6.693,9.586A37.33,37.33,0,0,0,41.5,16.859,145.893,145.893,0,0,1,43.476,0S-2.569,1.047.113,8.055Z" transform="translate(91.606 80.742)" opacity="0.1"/>
          <path id="Shape-23" data-name="Shape" d="M.016,37.586A37,37,0,0,0,1.807,49.043,36.463,36.463,0,0,0,41.79,74.137,36.8,36.8,0,0,0,72.973,38.471v-.886A37.054,37.054,0,0,0,54.913,5.057a36.093,36.093,0,0,0-36.849,0A37.054,37.054,0,0,0,.005,37.586Z" transform="translate(77.631 26.396)" fill="#b77782"/>
          <path id="Shape-24" data-name="Shape" d="M16.166,39.114C30.487,33.6,48.91,15.362,44.31,6.842A18.934,18.934,0,0,1,42.52,0L22.914,15.975l-12.13,9.865L1.562,2.56C.781,7.444,0,11.166,0,11.166s2.734,3.8,4.34,4S-4.383,46.978,16.166,39.114Z" transform="translate(91.606 105.585)" opacity="0.1"/>
          <path id="Shape-25" data-name="Shape" d="M0,112.645,16.4,388.331l21.386,1.4L93.164,229.88,84.079,40.1,82.166,0,57.541,20.239l-12.16,9.973L35.872,5.992,18.192,21.413,0,112.645Z" transform="translate(57.446 105.585)" fill="#0f0cd3"/>
          <path id="Shape-26" data-name="Shape" d="M.111,20.936A29.3,29.3,0,0,1,1.752,26.4,158.132,158.132,0,0,0,46.29,12.677l.291-.149-.1-1.714-.054-.894L41.033,0S-2.479,14.688.111,20.936Z" transform="translate(128.871 473.582)" opacity="0.1"/>
          <path id="Shape-27" data-name="Shape" d="M0,10.956a130.314,130.314,0,0,0,13.546,1.465c.269-5.815.429-9.816.429-9.816L.355,0Z" transform="translate(86.947 490.662)" opacity="0.1"/>
          <path id="Shape-28" data-name="Shape" d="M0,10.476c7.475,2.132,19.02,4.529,29.355,3.031L29.5,6.2,1.3,0S.526,5.7,0,10.476Z" transform="translate(57.446 484.451)" opacity="0.1"/>
          <path id="Shape-29" data-name="Shape" d="M0,392.782c44.68,7.609,85.6-14.206,85.6-14.206l-.392-7.391s-1.013-83.792,1.8-90.216,5-39,3.411-44,5.808-79.977,5.808-79.977l1.2-30.434L141.3,108.831,121.682,68.049a146.928,146.928,0,0,1-6.822-17.608C111.45,39.854,95.615,29.452,95.615,29.452s-16.237-10.391-22.656-10-14.832-9.2-14.832-9.2C51.916-5.537,46.293,1.615,46.293,1.615A14.074,14.074,0,0,0,46.6,3.952c2.18,17.337-35.243,72.118-35.777,73.086h0L7.258,163.623,3.651,273.2Z" transform="translate(86.947 105.585)" opacity="0.1"/>
          <path id="Shape-30" data-name="Shape" d="M0,392.782c44.67,7.607,85.592-14.2,85.592-14.2l-.4-7.39S84.175,287.41,87,280.987,92,241.995,90.4,237,96.2,157.032,96.2,157.032L97.413,126.6l43.885-17.79L121.687,68.038a149.21,149.21,0,0,1-6.82-17.605c-3.4-10.585-19.241-20.985-19.241-20.985s-16.234-10.389-22.64-10-14.828-9.194-14.828-9.194c-6.221-15.791-13.074-8.64-13.074-8.64,0,.75.654,1.087.305,2.337C40.6,20.764,11.353,76.058,10.819,77.025h0L7.213,163.6,3.606,273.152Z" transform="translate(88.5 105.585)" fill="#fff"/>
          <path id="Shape-31" data-name="Shape" d="M0,76.084c4.895-1.976,30.824-30.625,30.824-30.625v-6.52c.943-2.148,6.549-.838,11.1.666L39.97,0,37.75,1.783C32.888,18.39.566,75.128,0,76.084Z" transform="translate(99.369 107.138)" opacity="0.1"/>
          <path id="Shape-32" data-name="Shape" d="M0,76.084c4.9-1.976,30.827-30.625,30.827-30.625v-6.52c.943-2.148,6.547-.838,11.1.666L39.959,0,37.74,1.783C32.869,18.39.544,75.138,0,76.084Z" transform="translate(97.816 105.585)" fill="#fff"/>
          <path id="Shape-33" data-name="Shape" d="M48.768,3.238C48.163,3.238,17.441,0,17.441,0S-1.162,36.666.057,45.588s3.428,16.819,10.911,15.42,40.271,1.1,40.271,1.1Z" transform="translate(125.766 324.52)" opacity="0.1"/>
          <path id="Shape-34" data-name="Shape" d="M48.768,3.238C48.163,3.238,17.44,0,17.44,0S-1.152,36.677.056,45.588,3.5,62.406,10.968,61.008s40.272,1.1,40.272,1.1Z" transform="translate(125.766 321.414)" fill="#fff"/>
          <path id="Shape-35" data-name="Shape" d="M28.445,0S.614,15.391.018,20.089s14.165-2.054,17.354-2.868a38.673,38.673,0,0,1,6.388-1.027l21.269.592Z" transform="translate(124.213 307.44)" fill="#cf6f80"/>
          <ellipse id="Oval-3" data-name="Oval" cx="3.105" cy="3.105" rx="3.105" ry="3.105" transform="translate(105.58 180.116)" opacity="0.1"/>
          <ellipse id="Oval-4" data-name="Oval" cx="3.105" cy="3.105" rx="3.105" ry="3.105" transform="translate(105.58 180.116)" fill="#3f3d56"/>
          <ellipse id="Oval-5" data-name="Oval" cx="3.105" cy="3.105" rx="3.105" ry="3.105" transform="translate(100.922 307.44)" opacity="0.1"/>
          <ellipse id="Oval-6" data-name="Oval" cx="3.105" cy="3.105" rx="3.105" ry="3.105" transform="translate(100.922 307.44)" fill="#3f3d56"/>
          <ellipse id="Oval-7" data-name="Oval" cx="3.105" cy="3.105" rx="3.105" ry="3.105" transform="translate(104.027 243.778)" opacity="0.1"/>
          <ellipse id="Oval-8" data-name="Oval" cx="3.105" cy="3.105" rx="3.105" ry="3.105" transform="translate(104.027 242.225)" fill="#3f3d56"/>
          <path id="Shape-36" data-name="Shape" d="M23.388,213.907s-1.981,3.01,0,4.417-.194,4.809-.194,4.809,4.942,2.934,2.767,5.573-.8,14.559-.8,14.559l5.944,9.968s-.355,6.423-.377,15.1c0,13.545.786,32.586,5.136,41.267l-.6,71.225s20.814,7.7,38.237,5.355l2.584-114.292s-3.769-64.813-5.158-77.245a131.068,131.068,0,0,1-.991-19.467s.592-19.456,2.584-28.486c0,0,2.154-39.119,2.369-49.948.1-5.18-.172-20.3-.474-34.669-.334-15.715-.711-30.536-.711-30.536l3.93-31.5s-3.93-.4-5.115,1.2A11.357,11.357,0,0,1,70.8,2.586h0C64.015,7.232,40.046,21.519,40.046,21.519s-13.266,5.344-16.443,13-5.384,13.087-6.924,15.268S14.3,62.219,14.3,62.219,9.734,81.086,6.17,84.281,0,107.8,0,107.8l31.5,25.083s2.767,41.725,3.36,43.339S23.388,213.907,23.388,213.907Z" transform="translate(13.969 108.691)" fill="#fff"/>
          <path id="Shape-37" data-name="Shape" d="M23.449,214.9s-1.978,3.019,0,4.43-.184,4.824-.184,4.824,4.93,2.975,2.768,5.623-.8,14.6-.8,14.6l5.968,10s-.357,6.443-.389,15.15c0,13.586.789,32.685,5.157,41.392l-.595,71.441s20.93,7.723,38.4,5.371L76.357,273.1s-3.784-65.009-5.178-77.479a130.125,130.125,0,0,1-.984-19.526s.595-19.515,2.584-28.572c0,0,2.162-39.237,2.389-50.1.1-5.2-.184-20.357-.476-34.774-.335-15.763-.714-30.629-.714-30.629L79.189,0s-5.211,0-6.411,1.63a10.274,10.274,0,0,1-1.73,1.345h0c-6.811,4.66-30.886,18.99-30.886,18.99S26.854,27.325,23.665,35,18.259,48.131,16.7,50.318s-2.378,12.47-2.378,12.47S9.741,81.713,6.162,84.918,0,108.469,0,108.469l31.622,25.159S34.4,175.48,35.005,177.1,23.449,214.9,23.449,214.9Z" transform="translate(12.416 108.691)" fill="#fff"/>
          <path id="Shape-38" data-name="Shape" d="M4.415,39.54,1.449,48.1,17.065,63.662c-.348-16.007-.741-31.125-.741-31.125L21.738,0s-5.415,0-6.662,1.656a10.235,10.235,0,0,1-1.8,1.356h0L0,40.918Z" transform="translate(69.867 110.244)" opacity="0.1"/>
          <path id="Shape-39" data-name="Shape" d="M4.424,39.54,1.448,48.1,17.056,63.662c-.348-16.018-.741-31.125-.741-31.125L21.738,0S16.315,0,15.08,1.656a11.216,11.216,0,0,1-1.8,1.367h0L0,40.918Z" transform="translate(69.867 108.691)" fill="#fff"/>
          <path id="Shape-40" data-name="Shape" d="M.016,37.868A37.537,37.537,0,0,0,1.807,49.412a1.5,1.5,0,0,0,1.152-.294c.277-9.792,5-18.986,10.812-26.809a27.924,27.924,0,0,1,5.865-6.2,11.309,11.309,0,0,1,7.955-2.3c3.2.446,6.025,2.666,9.256,2.949,4.265.359,8.083-2.655,12.316-2.807a12,12,0,0,1,9.053,4.287,25.505,25.505,0,0,1,4.852,9.183,54.713,54.713,0,0,1,2.708,15.841c.053,3.046.341,6.865,3.114,7.975a16.467,16.467,0,0,1,4.02-12.414l.064-.065v-.892A37.4,37.4,0,0,0,54.913,5.095a35.862,35.862,0,0,0-36.849,0A37.4,37.4,0,0,0,.005,37.868Z" transform="translate(77.631 26.396)" opacity="0.1"/>
          <path id="Shape-41" data-name="Shape" d="M34.748,2.415a26.345,26.345,0,0,1,18.257-1.4c3.043.884,5.91,2.317,9,3.038C68.593,5.615,76.282,3.923,81.94,7.7c3.142,2.155,5.031,5.56,6.789,8.868l4.394,8.21c2.395,4.493,4.811,9.062,5.811,14.007s.4,10.484-2.8,14.46c-2.329,2.9-5.767,4.719-8.294,7.445a15.966,15.966,0,0,0-4.13,12.283c-2.867-1.077-3.142-4.87-3.208-7.887A52.289,52.289,0,0,0,77.71,49.4a24.862,24.862,0,0,0-5-9.094,12.592,12.592,0,0,0-9.326-4.245c-4.394.151-8.338,3.125-12.688,2.769-3.3-.269-6.218-2.478-9.535-2.909A11.942,11.942,0,0,0,32.968,38.2a27.851,27.851,0,0,0-6.031,6.142c-6,7.747-10.864,16.83-11.15,26.549-1.241.894-3.032-.269-3.647-1.649s-.637-3-1.417-4.31C9.823,63.41,8.1,62.6,6.747,61.46c-3.427-2.9-4.284-7.779-4.152-12.208s1.011-8.921.154-13.274c-.516-2.672-1.681-5.172-2.318-7.812s-.714-5.6.791-7.876c2.2-3.34,6.822-4,10.853-4.31,4.581-.388,8.678.108,11.6-3.674a41.439,41.439,0,0,1,4.614-5.538C28.871,6.207,34.748,2.652,34.748,2.415Z" transform="translate(62.104 3.106)"/>
          <path id="Shape-42" data-name="Shape" d="M73.628,21.006,84.927,0l3.579,32.411s-1.989,14.4-1.589,16.6-8.152,22-8.152,22-28.251,50.6-39.787,53.21L0,96.211l10.336-13.2s3.579-1.4,4.476,0c0,0,19.191-33.2,21.18-35.607s1.6-7.2,1.6-7.2,2.984-3.2,1.989-6.2S45.345,20.6,45.345,20.6l-6.163-5.8Z" transform="translate(142.845 212.724)" opacity="0.1"/>
          <path id="Shape-43" data-name="Shape" d="M81.943,0l2.984,2.376,3.578,32.2s-1.989,14.3-1.589,16.492-8.162,21.849-8.162,21.849-28.237,50.265-39.772,52.857L0,97.949,10.346,84.837s3.578-1.393,4.476,0c0,0,19.189-32.984,21.178-35.371s1.589-7.15,1.589-7.15,2.984-3.175,1.989-6.156S45.35,22.843,45.35,22.843l-6.162-5.757Z" transform="translate(145.951 211.171)" fill="#fff"/>
          <path id="Shape-44" data-name="Shape" d="M2.725,19.791C.6,22.491,1.94,34.614,1.94,34.614L7.793,44.771s-.35,6.556-.371,15.39l9.839,3.223a5.627,5.627,0,0,0,5.275-.968,6.237,6.237,0,0,0,2.306-5.066L23.144,0,.191,9.2C2.142,10.623,0,14.112,0,14.112S4.866,17.09,2.725,19.791Z" transform="translate(38.813 318.309)" opacity="0.1"/>
          <path id="Shape-45" data-name="Shape" d="M2.724,19.765c-2.12,2.7-.784,14.824-.784,14.824l5.85,10.149s-.35,6.54-.382,15.379l10.015,3.276a5.514,5.514,0,0,0,5.161-.952,6.107,6.107,0,0,0,2.257-4.955L23.135,0,.18,9.194c1.961,1.421-.18,4.9-.18,4.9S4.843,17.078,2.724,19.765Z" transform="translate(37.26 318.309)" fill="#fff"/>
          <path id="Shape-46" data-name="Shape" d="M0,8.418s1.581,9.817,5.54,10.392,5.734,15.88,9.682,15.336,1.334-14.228,1.194-16.884S20.72,3.609,17.4,1.11s-13.845,0-13.845,0Z" transform="translate(32.602 301.229)" fill="#cf6f80"/>
          <path id="Shape-47" data-name="Shape" d="M17.844,15.287,10.2,0S7.166,11.651,7.166,17.875,2.916,24.71,2.916,24.71s-4.657,5.46-2.2,9.434S4.16,48.011,4.16,48.011,3.357,66.89,7,69.5s4.4,8.844,4.4,8.844S18.1,90.192,17.888,93.009,27.2,114.9,27.2,114.9,22.545,91.2,49.681,80.954c0,0,.209-8.047-1.816-10.253s-5.185-3.21-3.2-14.359.572-24.47.572-27.145-6.077-19.36-6.077-19.36Z" transform="translate(4.653 217.382)" opacity="0.1"/>
          <path id="Shape-48" data-name="Shape" d="M16.872,0,10.206,2.172S7.16,13.76,7.16,19.95s-4.246,6.8-4.246,6.8-4.653,5.43-2.2,9.383S4.146,49.925,4.146,49.925,3.343,68.7,6.984,71.3s4.455,8.8,4.455,8.8,6.676,11.783,6.467,14.585,9.316,21.775,9.316,21.775S22.558,92.877,49.682,82.69c0,0,.2-8-1.826-10.2s-5.181-3.193-3.2-14.281.572-24.338.572-27-6.071-19.255-6.071-19.255Z" transform="translate(3.1 214.276)" fill="#fff"/>
          <path id="Shape-49" data-name="Shape" d="M18.633,3.7S8.127-3.175,1.232,1.819,18.633,3.7,18.633,3.7Z" transform="translate(147.504 607.116)" opacity="0.1"/>
          <path id="Shape-50" data-name="Shape" d="M18.633.056A21.881,21.881,0,0,0,1.516,6.943C-6.3,14.972,18.633.056,18.633.056Z" transform="translate(65.209 590.036)" opacity="0.1"/>
          <g id="Group" transform="translate(64.082 25.574)" opacity="0.1">
            <path id="Shape-51" data-name="Shape" d="M4.162,25.879c1.343,1.156,3.069,1.984,3.964,3.521.764,1.319.786,2.944,1.4,4.361s2.392,2.573,3.626,1.679c.284-9.812,5.133-19.024,11.084-26.874a27.952,27.952,0,0,1,6-6.214,11.753,11.753,0,0,1,8.157-2.3C41.663.5,44.546,2.723,47.854,3c4.368.371,8.288-2.649,12.624-2.8A12.37,12.37,0,0,1,69.739,4.5a25.236,25.236,0,0,1,4.969,9.19,53.819,53.819,0,0,1,2.774,15.873c.066,3.042.349,6.836,3.167,7.969a14.911,14.911,0,0,0,0,2.42c-2.839-1.09-3.123-4.928-3.189-7.98A53.754,53.754,0,0,0,74.685,16.1a25.291,25.291,0,0,0-4.969-9.2,12.4,12.4,0,0,0-9.26-4.3c-4.368.153-8.3,3.162-12.624,2.8-3.276-.273-6.181-2.507-9.468-2.944a11.753,11.753,0,0,0-8.157,2.3,27.952,27.952,0,0,0-6,6.214C18.26,18.814,13.412,28,13.128,37.839c-1.234.9-3.014-.273-3.626-1.668S8.869,33.14,8.1,31.81c-.9-1.537-2.621-2.355-3.964-3.51C.733,25.367-.118,20.428.013,15.947v-.414C.22,19.414,1.258,23.372,4.162,25.879Z" transform="translate(2.532 9.967)"/>
            <path id="Shape-52" data-name="Shape" d="M4.164,16.451c2.512-2.758,5.941-4.6,8.245-7.522A15.944,15.944,0,0,0,15.587,0a16.769,16.769,0,0,1-3.178,11.327C10.1,14.26,6.676,16.1,4.164,18.861A16.339,16.339,0,0,0,.047,28.585,16.336,16.336,0,0,1,4.164,16.451Z" transform="translate(83.143 18.621)"/>
            <path id="Shape-53" data-name="Shape" d="M.415,2.159c.644,2.671,1.791,5.211,2.315,7.9a25.143,25.143,0,0,1,.339,5.451,21.138,21.138,0,0,0-.339-3.1c-.524-2.7-1.671-5.233-2.315-7.9A13.388,13.388,0,0,1,.054,0a15.131,15.131,0,0,0,.36,2.159Z" transform="translate(0 0)"/>
          </g>
        </g>
        <g id="Grupo_4" data-name="Grupo 4" transform="translate(-82 44)">
          <ellipse id="Oval-9" data-name="Oval" cx="105.585" cy="17.08" rx="105.585" ry="17.08" transform="translate(71.265 840.447)" fill="#6c63ff" opacity="0.1"/>
          <rect id="Rectangle-path-15" data-name="Rectangle-path" width="6.211" height="153.72" transform="translate(173.745 531.454)" fill="#535461"/>
          <path id="Shape-54" data-name="Shape" d="M93.138,10.4l-.427,6.907L92.1,27.085l-.252,4.062-.6,9.774-.263,4.062-.613,9.774-6.92,110.85a18.877,18.877,0,0,1-18.9,17.615H28.571A18.866,18.866,0,0,1,9.684,165.607L2.8,54.681l-.613-9.774-.252-4.062-.613-9.774-.252-4.062L.454,17.235.016,10.328A9.728,9.728,0,0,1,2.7,3.056,9.893,9.893,0,0,1,9.87,0H83.459a9.825,9.825,0,0,1,7.109,3.124A9.661,9.661,0,0,1,93.138,10.4Z" transform="translate(131.822 674.305)" fill="#3f3d56"/>
          <path id="Shape-55" data-name="Shape" d="M91.611,0,91,9.316H.609L0,0Z" transform="translate(131.822 692.938)" fill="#9d9cb5"/>
          <path id="Shape-56" data-name="Shape" d="M90.058,0l-.6,10.869H.61L0,0Z" transform="translate(133.374 705.36)" fill="#9d9cb5"/>
          <path id="Shape-57" data-name="Shape" d="M88.505,0l-.6,9.316H.611L0,0Z" transform="translate(133.374 719.334)" fill="#9d9cb5"/>
          <path id="Shape-58" data-name="Shape" d="M87.9,30.364C127.763,59.1,144.4,104.033,144.4,104.033s-48.044-1.642-87.92-30.375S0,0,0,0,48.022,1.631,87.9,30.364Z" transform="translate(34 557.851)" fill="#0f0cd3"/>
          <path id="Shape-59" data-name="Shape" d="M0,0S49.867,27.569,65.859,50.4,144.4,104.033,144.4,104.033" transform="translate(34 557.851)" fill="none" stroke="#535461" stroke-miterlimit="10" stroke-width="2"/>
          <path id="Shape-60" data-name="Shape" d="M47.25,16.774C68.676,32.632,77.636,57.451,77.636,57.451s-25.825-.9-47.261-16.763S0,0,0,0,25.814.9,47.25,16.774Z" transform="translate(97.662 514.374)" fill="#0f0cd3"/>
          <path id="Shape-61" data-name="Shape" d="M0,0S26.806,15.229,35.4,27.832,77.636,57.451,77.636,57.451" transform="translate(97.662 514.374)" fill="none" stroke="#535461" stroke-miterlimit="10" stroke-width="2"/>
          <path id="Shape-62" data-name="Shape" d="M30.136,36.084C5.262,63.52,0,99.374,0,99.374S35.071,90.736,59.923,63.29,90.058,0,90.058,0,55.009,8.649,30.136,36.084Z" transform="translate(178.404 534.56)" fill="#0f0cd3"/>
          <path id="Shape-63" data-name="Shape" d="M90.058,0S57.664,28.127,49.43,47.506,0,99.374,0,99.374" transform="translate(178.404 534.56)" fill="none" stroke="#535461" stroke-miterlimit="10" stroke-width="2"/>
        </g>
        <path id="Shape-64" data-name="Shape" d="M172.194,613.327h0a12.654,12.654,0,0,1-5.356-.966,3.221,3.221,0,0,1-1.989-2.2c-.226-1.4,1.021-2.766,3.176-3.481,1.706-.566,4.52-2.369,8.238-7.74a57.613,57.613,0,0,0,3.75-6.25,14.175,14.175,0,0,1,3.5-.776l.065-.135.053-.11c.074-.153.15-.309.22-.464,4.426-9.368,10.544-26.77,10.605-26.944v-.141c.628-7.3,1.733-14.557,2.8-21.575,2.017-12.739-1.663-44.208-1.7-44.524-.013-.385-1.361-38.585-4.229-47.219a71.7,71.7,0,0,1-2.573-13.663c-.071-.612-.135-1.255-.2-1.965-2.476.02-4.872.029-7.118.029-12.153,0-22.764-.267-31.538-.795-10.748-.646-18.785-1.688-23.889-3.1a86.324,86.324,0,0,0-10.825-2.183c.108.628.229,1.308.361,2.019a153.1,153.1,0,0,0,4.24,16.6c2.546,8.126,3.485,19.421,2.645,31.8a132.17,132.17,0,0,1-6.864,34.438c-2.339,6.555-3.609,14.791-3.773,24.48a151.608,151.608,0,0,0,1.147,20.6c.016.149.04.3.063.442a4.734,4.734,0,0,1,.079.737l.152-.131a8.209,8.209,0,0,0,2.693,5.98,13.846,13.846,0,0,1,4.926,12.8,17.4,17.4,0,0,1-7.51,11.382v19.327h-4.218V590.587a11.073,11.073,0,0,0-2.556-.294c-3,0-6.329,1.163-9.881,3.456a50.438,50.438,0,0,0-8.894,7.6,89.291,89.291,0,0,0-8.894,11.06l-.03,0c-1.722.077-17.26.755-32.438.755-3.426,0-6.633-.035-9.531-.1-6.137-.145-9.513-1.151-10.036-2.99-.692-2.438,3.984-5.512,4.031-5.542.555.018,1.118.027,1.673.027a44.967,44.967,0,0,0,12.654-1.745,37.771,37.771,0,0,0,8.826-3.839,27.274,27.274,0,0,0,6.855-5.585l.239,1.7a1.074,1.074,0,0,0,.175-.154c7.679-7.19,17.485-25.2,17.583-25.382.007-.091.693-9.247,3.107-13.554,2.423-4.327,1.567-49.827,1.558-50.286l.2-74.85v-1.976l-.091.009c-2.423.183-4.711.355-6.285.355a6.394,6.394,0,0,1-2.278-.266,2.135,2.135,0,0,1-.978-1.345c-.871-2.469-.884-8.089-.036-15.033.8-6.582,2.165-12.424,3.467-14.885,1.892-3.6,8.993-27.171,14.617-46.314a52.155,52.155,0,0,1-4.612,6.079c3.289-4.381,21.368-91.152,21.55-92.028l.62-11.491a62.135,62.135,0,0,1-7.074-12c-7.219-.811-25.072-3.943-34.879-15.474-2.13-2.5-2.812-4.477-2.028-5.882L10.671,209.228,0,200.258l32.984,6.1c-2.5-4.69-3.045-8.606-1.614-11.635,1.514-3.208,5.178-5.417,10.889-6.566l-1.874-5.8a2.763,2.763,0,0,1,.391-2.444l.066-.066.131-.152a2.261,2.261,0,0,1,.218-.229l.141-.131.284-.2.152-.088a3.294,3.294,0,0,1,.491-.207,2.841,2.841,0,0,1,3.565,1.822L48,187.425l.927-.055,40.438-1.747c.2-.3,4.989-7.3,7.776-7.3a1.423,1.423,0,0,1,1.119.524,3.064,3.064,0,0,0,2.39,1.157,6.335,6.335,0,0,0,3.605-1.594V178.4a89.673,89.673,0,0,1,.627-9.827,30.55,30.55,0,0,1,1.489-6.761c.78-2.039,1.755-3.073,2.9-3.073a2.037,2.037,0,0,1,.327.027,6.732,6.732,0,0,0,5.45-1.473l.12-2.248c.009-.105.905-10.609,1.787-19.446.84-8.088,15.583-18.864,18.53-20.942L152.6,90.716a1.13,1.13,0,0,1,.1.143l.577-.808c-.008-.062-.021-.124-.033-.185a1.547,1.547,0,0,1-.042-.307c-.041-.219-.078-.439-.116-.659l0-.01c-.033-.191-.065-.383-.1-.574A33.291,33.291,0,0,1,142.9,89.876h-.027a33.278,33.278,0,0,1-12.85-2.552,32.918,32.918,0,0,1-10.491-6.958,32.327,32.327,0,0,1-7.072-10.32,32.112,32.112,0,0,1-.227-24.739l.2-.47a9.415,9.415,0,0,1-5.45-.546,3.842,3.842,0,0,1-1.09-.7c-3.408-3.234,1.561-9.978,5.19-14.9a35.164,35.164,0,0,0,2.81-4.14c.647-1.331,1.169-2.721,1.674-4.065a31.211,31.211,0,0,1,2.62-5.756,17.245,17.245,0,0,1,3.663-4.093c-.037.057-.076.113-.115.17-.074.108-.149.216-.212.322l-.12.2a27.418,27.418,0,0,1,9.68-5.369C135.21,4.559,149.678,0,162.626,0c8.543,0,14.4,2.022,17.42,6.011.384.512.76,1.05,1.123,1.57a16.875,16.875,0,0,0,4.1,4.575,17.138,17.138,0,0,0,3.583,1.661c.694.259,1.409.526,2.085.837,4.629,2.141,8.334,6.819,10.432,13.172A75.137,75.137,0,0,1,203.731,38.2c.378,2.118.768,4.3,1.266,6.426,1.68,7.144,4.671,14.014,7.564,20.657,3.28,7.541,7,16.087,13.821,21.825,4.884,4.1,7.807,9.21,10.633,14.153,2.488,4.353,5.061,8.853,8.987,12.768a26.033,26.033,0,0,1,5.642,8.557,33,33,0,0,1,2.3,10.061,48.363,48.363,0,0,1-3.42,20.942q-.087.22-.175.44a9.427,9.427,0,0,0-1,4.907c.272,1.843,1.5,3.33,2.953,4.944l5.45,6.078a30.569,30.569,0,0,1-20.6-2.662,33.463,33.463,0,0,1-3.783-2.183v1.518c.408,13.031.166,23.478.163,23.582-1.572,2.544-1.965,9.426-1.171,20.454.636,8.823,2.029,20.3,4.141,34.124,3.581,23.431,8.092,45.987,8.137,46.213,1.628,6.646,3.574,27.412,5.782,61.722,1.149,17.86,2.318,38.624,3.475,61.714.082,1.629.115,2.29.118,2.3-7.673,3.746-17.6,5.993-29.506,6.678.054.391.119.8.2,1.212a36.377,36.377,0,0,0,3.084,9.6h-.632c3.27,4.932,5.431,11.54,6.423,19.637a108.912,108.912,0,0,1,.156,22.124,170.719,170.719,0,0,1-4.171,25.548c-.031.171-3.182,17.32-8.448,35.849-2.989,10.521-1.276,16.358.686,19.4v.066c.09.13.172.268.251.4.048.08.094.157.142.233v-.317a30.851,30.851,0,0,1,5.785,9.486,14.351,14.351,0,0,1,.8,6.8,9.533,9.533,0,0,1-2.586,5.471l-6.813,8.533.588,14.852-4.437.873,1.09-12.211-4.163,5.217-.883,12.243c-.192.019-20.6,1.99-34.008,4.366A31.191,31.191,0,0,1,172.194,613.327ZM102.514,216.41c-4.363.537-9.023,1.086-13.537,1.462l1.624,1.636c3.409.574,5.8,1.087,5.82,1.091l3.4.764a9.721,9.721,0,0,1,1.71-4.486A2.412,2.412,0,0,1,102.514,216.41Zm7.478-1.037-2.18.327,2.18-.109Z" transform="translate(875.578 270.596)" fill="url(#linear-gradient-2)"/>
        <path id="Shape-65" data-name="Shape" d="M1.389,2.3,0,18.633l4.658-.922L3.958,0,1.389,2.3Z" transform="translate(1088.301 854.421)" fill="#1d2366"/>
        <path id="Shape-66" data-name="Shape" d="M59.717,92.257c-5.279,14.9-3.787,35.008-2.6,44.774.439,3.611.845,5.808.845,5.808s-7.892,17.814-8.55,18.488S26.185,175.65,26.185,175.65l-15.773,9.125s-16-6.949-8.331-9.342a11.65,11.65,0,0,0,4.138-2.8c7.683-7.232,17.331-25.209,17.331-25.209s.659-9.125,3.073-13.464,1.537-49.94,1.537-49.94L28.347,9.69V0L58.367.218a66.725,66.725,0,0,0,1.3,9.788,148.516,148.516,0,0,0,4.182,16.487C69.134,43.448,66.939,71.843,59.717,92.257Z" transform="translate(933.029 691.385)" fill="#ffb0b1"/>
        <path id="Shape-67" data-name="Shape" d="M57.451,5.836S49.629,23.8,48.976,24.484,25.955,38.931,25.955,38.931l-15.634,9.2s-15.862-7.01-8.258-9.423a11.54,11.54,0,0,0,4.1-2.819l.675,4.794,5.211-.219L56.657,0C57.048,3.62,57.451,5.836,57.451,5.836Z" transform="translate(933.029 828.025)" opacity="0.1"/>
        <path id="Shape-68" data-name="Shape" d="M85.53,0,40.15,40.507l-5.272.218-1.1-7.635s-9.224,11.757-29.718,11.1c0,0-12.305,8.06,5.933,8.5s41.528-.654,41.528-.654S67.788,26.95,81.4,30.222V49.167h4.183V30.048A17.21,17.21,0,0,0,93,18.7,13.828,13.828,0,0,0,88.15,5.966,8.178,8.178,0,0,1,85.53,0Z" transform="translate(905.08 829.578)" fill="#1d2366"/>
        <path id="Shape-69" data-name="Shape" d="M41.306,116.185c-2.959,10.322-1.346,16.135.679,19.253v.065A35.128,35.128,0,0,1,47.3,148.182l.178.978L26.612,178.876l-11.324,4.346S-2.92,177.148.406,175.41c.834-.424,2.136-2.684,3.626-5.8,4.449-9.4,10.589-26.739,10.589-26.739v-.141c.645-7.16,1.668-14.3,2.8-21.4,2.036-12.788-1.7-44.177-1.7-44.177S14.388,38.978,11.5,30.3A70.148,70.148,0,0,1,8.9,16.781c-.6-5.432-.734-9.909-.734-9.909s11.991-16.3,33.971,1.3a23.842,23.842,0,0,1,4.594,4.868c15.183,21.1,2.959,67.58,2.959,67.58S46.634,97.529,41.306,116.185Z" transform="translate(1054.141 689.832)" fill="#ffb0b1"/>
        <path id="Shape-70" data-name="Shape" d="M46.582,14.009,26.109,43.78,15,48.135S-2.865,42.05.4,40.308c.818-.425,2.1-2.689,3.558-5.813,7.563-.065,11.48,7.119,11.48,7.119l9.582-1.524S37.655,15.316,40.492,13.8s.437-11.31.437-11.31V0c.076.087.142.185.229.272V.337a35.6,35.6,0,0,1,5.216,12.7Z" transform="translate(1054.141 826.472)" opacity="0.1"/>
        <path id="Shape-71" data-name="Shape" d="M31.2,41.672s-5.525-10-16.11-6.31c0,0-5.955,11.987-11.911,13.927s-3.967,8.478,9.491,6.092,33.744-4.359,33.744-4.359L47.3,38.828,60.981,21.642S69.135,14.352,57,0V2.5s2.431,9.808-.442,11.322S40.937,40.146,40.937,40.146Z" transform="translate(1038.614 826.472)" fill="#1d2366"/>
        <path id="Shape-72" data-name="Shape" d="M29.771.236a79.121,79.121,0,0,0,1.283,10.633C18.811,8.92,7.448,9.889,0,10.526V0Z" transform="translate(959.425 691.385)" opacity="0.1"/>
        <path id="Shape-73" data-name="Shape" d="M38.818,16.04S21.44,16.9.717,17.08C.13,11.551,0,6.994,0,6.994S11.708-9.594,33.17,8.321a23.884,23.884,0,0,1,4.486,4.954A27.248,27.248,0,0,0,38.818,16.04Z" transform="translate(1063.458 689.832)" opacity="0.1"/>
        <path id="Shape-74" data-name="Shape" d="M152.167,205.468S75.244,209.175,51.8,202.624s-46.683-.875-50.185-2.4S.955,174.9,4.028,169s19.933-65.511,19.933-65.511L40.185,19.216l17.09-4.692,1.207-.339L88.262,6l21.821-6s43.39,168.786,39.669,181.232a31.758,31.758,0,0,0-.637,14.644A36.455,36.455,0,0,0,152.167,205.468Z" transform="translate(950.109 500.4)" fill="#ff3b68"/>
        <path id="Shape-75" data-name="Shape" d="M7.967,0S-7.174,16.213,4.29,25.249s19,.865,19,.865Z" transform="translate(926.818 461.582)" fill="#c7daf5"/>
        <path id="Shape-76" data-name="Shape" d="M7.967,0S-7.174,16.213,4.29,25.249s19,.865,19,.865Z" transform="translate(926.818 461.582)" opacity="0.1"/>
        <path id="Shape-77" data-name="Shape" d="M32.607,29.253s-1.786,1.669-4.475,4.13C24.3,36.9,18.628,42.05,13.6,46.361,6.63,52.321.882,56.7,2.94,52.963s1.666-10.239.642-16.327c-.076-.407-.142-.813-.218-1.209A110.538,110.538,0,0,0,0,22.2S11.257,7.909,17.485,2.27C19.8.13,21.426-.747,21.524.74c.109,2,1.633,6.419,3.527,11.106.054.15.109.289.174.439,1.263,3.21,2.689,6.505,3.941,9.351C31.083,26,32.607,29.253,32.607,29.253Z" transform="translate(1026.192 323.389)" fill="#ffb0b1"/>
        <path id="Shape-78" data-name="Shape" d="M23.291,12.487C21.3,24.076,13.643,33.572,3.307,37.265A121.166,121.166,0,0,0,0,22.579S19.572-4.8,19.873.74C19.944,2.842,21.471,7.5,23.291,12.487Z" transform="translate(1026.192 323.389)" opacity="0.1"/>
        <path id="Shape-79" data-name="Shape" d="M40.751,3.874,43.494,0s1.818,11.11,8.5,6.21S59,43.086,59,43.086L51.831,150.614,0,147.5,1.469,95.546,7.336,69.354,21.845,31.278l8.631-12.583Z" transform="translate(985.821 363.76)" opacity="0.1"/>
        <path id="Shape-80" data-name="Shape" d="M59,43.125l-6.534,97.191-.686,10.3L22.87,148.88l-1.089-.065L0,147.505l1.47-51.95L7.34,69.373,21.857,31.31l8.636-12.578L40.773,3.862,43.518,0s1.819,11.106,8.505,6.207l.142-.1h0C58.7,1.964,59,43.125,59,43.125Z" transform="translate(985.821 365.313)" fill="#1d2366"/>
        <path id="Shape-81" data-name="Shape" d="M65.779,0s-2.548,5.423-7.664,4.544-5.106,19.522-5.106,19.522-3.4,3.254-5.745.434-8.527,6.713-8.527,6.713L0,32.949s17.236,8.015,13.857,32.266c0,0,58.52-3.688,60.438-9.316S65.779,0,65.779,0Z" transform="translate(926.818 424.316)" fill="#fff"/>
        <path id="Shape-82" data-name="Shape" d="M65.779,0s-2.548,5.423-7.664,4.544-5.106,19.522-5.106,19.522-3.4,3.254-5.745.434-8.527,6.713-8.527,6.713L0,32.949s17.236,8.015,13.857,32.266c0,0,58.52-3.688,60.438-9.316S65.779,0,65.779,0Z" transform="translate(926.818 424.316)" opacity="0.03"/>
        <path id="Shape-83" data-name="Shape" d="M0,0,10.428,8.724,96.269,26.4,85.623,15.752,0,0Z" transform="translate(878.683 469.345)" fill="#fff"/>
        <path id="Shape-84" data-name="Shape" d="M62.359,10.167c-1.431,2.175-5.527,13.31-8.946,23.032-2.851,8.1-5.232,15.224-5.232,15.224s-5.56,36.037-8.4,42.551-1.3,31.916-1.3,31.916L27.9,185.623S23.1,217.974,15.7,237.3C8.389,256.317.251,265.234,0,265.516c3.277-4.415,21.136-91.344,21.136-91.344l5.9-109.634s.863-10.418,1.737-19.324S47.34,24.152,47.34,24.152L64.4,0C66.116,2.284,64.969,6.264,62.359,10.167Z" transform="translate(964.083 362.207)" fill="#fff"/>
        <path id="Shape-85" data-name="Shape" d="M39.077,23.291S14.274,22.238,2.261,8.147,30.029,2.523,30.029,2.523L40.371,4.84Z" transform="translate(943.898 489.531)" fill="#ffb0b1"/>
        <path id="Shape-86" data-name="Shape" d="M92.937,309.165a31.446,31.446,0,0,0-.64,14.607c-27.677,1.942-57.284-5.454-57.284-5.454-5.516,5.018-20.043,12.414-20.043,12.414l-7.92-97.086C1.986,220.555,0,151.973,0,151.973s.452-3.589,1.1-8.967a1.022,1.022,0,0,1,.055-.4c1.975-15.021,5.891-43.22,7.81-47.027C11.616,90.34.827,76.41.827,76.41l4.909-41.4.6-5C16.679,25.445,24.61,10.849,24.61,10.849L30.7.3h0c6.619-4.2,6.961,36.958,6.961,36.958l-6.619,97.184,21.93-5.989S96.676,296.751,92.937,309.165Z" transform="translate(1006.007 371.523)" opacity="0.1"/>
        <path id="Shape-87" data-name="Shape" d="M118.007,340.568c-29.664,14.757-83.581,1.087-83.581,1.087-5.423,5-19.708,12.366-19.708,12.366l-7.8-96.715C1.952,244.266,0,175.946,0,175.946s6.269-50.977,8.872-56.182c.759-1.521.39-3.782-.51-6.216A78.793,78.793,0,0,1,3.612,77.155L5.694,59.431l.575-4.966c10.185-4.564,17.983-19.1,17.983-19.1l5.423-9.519L39.654,8.3,44.383,0l.8.728,6.128,5.564,6.508,5.433c8.493,7.172,23.168,19.8,30.738,27.526,6.66,6.8,8.764,33.264,9.371,53.183.4,13.116.163,23.4.163,23.4C91.38,126.9,108.94,215.806,108.94,215.806,113.029,232.986,118.007,340.568,118.007,340.568Z" transform="translate(1007.56 343.574)" fill="#fff"/>
        <path id="Shape-88" data-name="Shape" d="M91.688,1.543S71.239,40.636,73.614,55.495s9.13,31.675,5.872,35.6a12.022,12.022,0,0,1-9.577,4.8c-3.268.219-11.984,6.335-11.984,6.991s-8.051.656-15.253,3.72-17.835,4.8-17.835,4.8-20.7-.656-22.629,1.313-3.911,13.753.218,23.152,8.716,16.412,12.18,17.692,25.45-6.116,43.285-7.867,37.2-15.941,37.2-15.941,21.321-7.659,25.058-20.537-4.565-83.657-4.565-83.657S109.306-7.418,91.688,1.543Z" transform="translate(978.058 377.734)" opacity="0.03"/>
        <path id="Shape-89" data-name="Shape" d="M91.709,1.54s-20.461,39.1-18.063,53.952,9.135,31.676,5.865,35.614a11.976,11.976,0,0,1-9.571,4.8c-3.27.219-11.991,6.335-11.991,6.992s-8.056.656-15.262,3.709-17.845,4.8-17.845,4.8-20.712-.656-22.631,1.313-3.924,13.764.218,23.152,8.721,16.412,12.187,17.692,25.465-6.116,43.31-7.856,37.216-15.953,37.216-15.953,21.323-7.659,25.018-20.526-4.568-83.669-4.568-83.669S109.337-7.41,91.709,1.54Z" transform="translate(976.505 374.629)" opacity="0.03"/>
        <path id="Shape-90" data-name="Shape" d="M91.663,1.528S71.214,40.636,73.611,55.485s9.13,31.678,5.872,35.606a11.966,11.966,0,0,1-9.576,4.815c-3.268.219-11.984,6.336-11.984,6.981s-8.04.657-15.252,3.72-17.834,4.8-17.834,4.8-20.7-.657-22.628,1.313-3.911,13.765.218,23.154,8.716,16.413,12.18,17.694,25.449-6.117,43.284-7.868,37.194-15.943,37.194-15.943,21.32-7.66,25.057-20.539-4.51-83.665-4.51-83.665S109.268-7.379,91.663,1.528Z" transform="translate(976.505 376.182)" fill="#fff"/>
        <path id="Shape-91" data-name="Shape" d="M12.293,1.033S-4.65-2.438,1.246,3.346,7.108,14.2,14.326,13.967,12.293,1.033,12.293,1.033Z" transform="translate(1055.694 480.214)" opacity="0.1"/>
        <path id="Shape-92" data-name="Shape" d="M1.986,0s-7.6,5.228,6.939,17.28S1.986,0,1.986,0Z" transform="translate(1092.959 599.774)" opacity="0.1"/>
        <path id="Shape-93" data-name="Shape" d="M.328,0c0,.634-2.7,23.228,7.4,28.877S.328,0,.328,0Z" transform="translate(1082.09 641.698)" opacity="0.1"/>
        <path id="Shape-94" data-name="Shape" d="M18.72,0C10.768.269-6.41,2.648,2.5,18.935c7.875,14.414,21.11,4.779,28.557-2.53A27.553,27.553,0,0,0,18.72,0Z" transform="translate(906.632 458.476)" fill="#ffb0b1"/>
        <path id="Shape-95" data-name="Shape" d="M0,.481.466,0Z" transform="translate(939.24 474.003)" fill="#ffb0b1"/>
        <path id="Shape-96" data-name="Shape" d="M52.793,11.97C44.356,17.783,37.282,22.688,35.9,23.707c-3.779,2.824-10.985,19.4-15.631,27.859-3.7,6.81-15.73,8.559-20.267,8.991L.582,55.5C10.9,50.846,18.795,36.03,18.795,36.03L39.183,0,46.2,6.433Z" transform="translate(1015.323 345.127)" opacity="0.1"/>
        <path id="Shape-97" data-name="Shape" d="M52.793,11.97C44.356,17.783,37.282,22.688,35.9,23.718,32.119,26.53,24.913,43.106,20.267,51.565c-3.7,6.81-15.73,8.559-20.267,8.991L.582,55.5C10.9,50.846,18.795,36.03,18.795,36.03L39.183,0,46.2,6.411S48.838,8.6,52.793,11.97Z" transform="translate(1015.323 343.574)" fill="#dce7ff"/>
        <path id="Shape-98" data-name="Shape" d="M65.215,32.6A32.6,32.6,0,1,1,37.5.371,32.549,32.549,0,0,1,65.215,32.6Z" transform="translate(985.821 295.44)" fill="#ffb0b1"/>
        <path id="Shape-99" data-name="Shape" d="M118.007,141.3a28.694,28.694,0,0,1-10.367-11.225c-1.809-3.6-3.012-7.763-6.1-10.318-2.784-2.293-6.5-2.85-9.967-3.876-11.4-3.4-20.952-13.878-21.309-25.845-.173-5.634,1.571-11.257.78-16.837a18.727,18.727,0,0,0-3.618-8.68,29.793,29.793,0,0,0-3.131-3.4c-1.517-1.441-3.109-2.839-4.5-4.368a16.95,16.95,0,0,1-2.275-3.112,15.031,15.031,0,0,1-1.246-2.893c-2.167-6.682-.195-14.609-2.578-21.368l-.13-.371c-.9-2.4-2.73-4.8-5.276-4.99s-4.723,1.944-7.15,2.893c-5.081,1.987-10.562-1.4-14.8-4.848s-9.013-7.392-14.4-6.628c-3.564.513-6.381,2.959-9.663,4.226A13.461,13.461,0,0,1,0,20.329,32.086,32.086,0,0,1,61.934,32.394a32.29,32.29,0,0,1-.7,6.759c.054.153.108.295.173.448,1.257,3.276,2.676,6.639,3.922,9.543l6.121,5.59,6.5,5.459c8.482,7.206,23.14,19.894,30.7,27.657C115.3,94.708,117.379,121.284,118.007,141.3Z" transform="translate(988.927 295.44)" opacity="0.1"/>
        <path id="Shape-100" data-name="Shape" d="M9.007,24.437c1.569-3.161,2.348-6.7,4.225-9.7,2.754-4.345,7.561-7.126,12.5-8.809,12.894-4.4,40.143-10.786,48.285,0,1.6,2.172,2.93,4.584,5.147,6.083,1.69,1.141,3.731,1.629,5.586,2.487,5.191,2.411,8.5,7.669,10.272,13.035s2.294,11.123,3.588,16.652c1.657,7.093,4.565,13.817,7.462,20.5,3.413,7.886,7.034,16.065,13.619,21.638,8.988,7.6,10.974,18.368,19.314,26.71,9.877,9.906,9.558,26.254,4.466,39.235-.669,1.705-1.427,3.487-1.163,5.3s1.624,3.465,2.908,4.91l5.4,6.029c-12.774,3.052-27.226-3.552-33.174-15.142-1.833-3.585-3.051-7.712-6.189-10.265-2.809-2.281-6.584-2.824-10.085-3.845-11.545-3.389-21.224-13.828-21.586-25.733-.176-5.594,1.591-11.188.79-16.728a18.367,18.367,0,0,0-3.676-8.69c-3.018-3.9-7.572-6.517-10.03-10.862-4.159-7.267-1-16.706-3.994-24.505-.922-2.39-2.765-4.779-5.344-4.964s-4.785,1.933-7.254,2.879c-5.136,1.977-10.689-1.38-14.979-4.823s-9.13-7.354-14.6-6.583c-3.61.5-6.453,2.933-9.778,4.2-2.458.934-7.44,1.771-9.591-.282C-3.415,39.025,7.109,28.3,9.007,24.437Z" transform="translate(981.163 272.149)"/>
        <path id="Shape-101" data-name="Shape" d="M120.732,140.26c-1.844-3.612-3.051-7.77-6.189-10.331-2.809-2.3-6.585-2.856-10.1-3.885-11.534-3.4-21.213-13.921-21.586-25.916-.176-5.636,1.591-11.283.8-16.865a18.687,18.687,0,0,0-3.676-8.7C76.955,70.633,72.4,68,69.954,63.618c-4.159-7.311-1-16.821-4.006-24.69-.911-2.4-2.766-4.8-5.333-5s-4.8,1.959-7.254,2.911c-5.136,1.992-10.7-1.4-14.98-4.859s-9.142-7.409-14.6-6.643c-3.611.514-6.464,2.966-9.778,4.235-2.458.941-7.452,1.795-9.6-.274-4.521-4.378,6-15.158,7.89-19.032,1.569-3.2,2.348-6.753,4.236-9.773.1-.164.209-.328.318-.492a17.394,17.394,0,0,0-3.611,4.093c-1.877,3.021-2.656,6.566-4.225,9.773C7.115,17.74-3.409,28.553,1.123,32.9c2.195,2.079,7.133,1.226,9.592.285,3.292-1.28,6.168-3.732,9.778-4.235,5.487-.777,10.316,3.174,14.6,6.632s9.877,6.851,14.991,4.859c2.458-.952,4.609-3.1,7.243-2.9s4.39,2.594,5.344,5c3,7.858-.165,17.368,3.995,24.69,2.458,4.3,7.013,6.993,10.03,10.944a18.578,18.578,0,0,1,3.676,8.755c.8,5.581-.966,11.218-.79,16.854.362,12.039,10.041,22.512,21.586,25.927,3.479,1.029,7.276,1.576,10.085,3.874,3.15,2.572,4.39,6.731,6.189,10.342,5.948,11.677,20.4,18.331,33.175,15.256l-2.546-2.867C137,156.479,125.791,150.2,120.732,140.26Z" transform="translate(981.163 281.465)" opacity="0.1"/>
        <path id="Shape-102" data-name="Shape" d="M15.67,10.539C14.18,12.77,9.916,24.19,6.357,34.16,3.025,32.889,0,24.781,0,24.781L17.762,0C19.582,2.454,18.388,6.524,15.67,10.539Z" transform="translate(1010.665 362.207)" opacity="0.1"/>
        <path id="Shape-103" data-name="Shape" d="M15.67,10.531C14.18,12.763,9.916,24.186,6.357,34.16,3.025,32.9,0,24.778,0,24.778L17.762,0C19.582,2.443,18.388,6.526,15.67,10.531Z" transform="translate(1010.665 362.207)" fill="#dce7ff"/>
        <path id="Shape-104" data-name="Shape" d="M10,32.839.139,3.566a2.59,2.59,0,0,1,.186-2.09A2.865,2.865,0,0,1,2.028.125h0A2.953,2.953,0,0,1,5.67,1.9l9.857,29.24-.979,6.12Z" transform="translate(917.501 450.712)" fill="#be8b87"/>
        <path id="Shape-105" data-name="Shape" d="M.622.951h0A3.067,3.067,0,0,1,4.386,2.73L14.542,31.97l-.762,4.588.739.707,1.009-6.12L5.313,1.9A3.066,3.066,0,0,0,1.56.125h0A2.991,2.991,0,0,0,0,1.2,4.291,4.291,0,0,1,.622.951Z" transform="translate(917.501 450.712)" fill="#fff" opacity="0.1"/>
        <path id="Shape-106" data-name="Shape" d="M0,1.675,4.658,0,3.978,5.091l-.144,1.12L2.473,4.6,0,1.675Z" transform="translate(926.818 480.214)" fill="#efc8c4"/>
        <path id="Shape-107" data-name="Shape" d="M0,.291A.971.971,0,0,1,.307.06a.477.477,0,0,1,.465,0A1.092,1.092,0,0,1,.94.3a.861.861,0,0,0,.613.364L1.4,1.553Z" transform="translate(929.923 484.872)" fill="#727a9c"/>
        <path id="Shape-108" data-name="Shape" d="M0,0S19.4-.11,14.831,8s-11.7,9.083-11.7,9.083Z" transform="translate(917.501 463.134)" fill="#ffb0b1"/>
      </g>
      <path id="Caminho_2017" data-name="Caminho 2017" d="M126.638-.769h43.4L346.4,253.622H-59.3Z" transform="translate(129 270)" fill="url(#linear-gradient-3)"/>
    </g>
  </g>
</svg>
